<svg version="1.1" id="Layer_1" xmlns="http://www.w3.org/2000/svg" xmlns:xlink="http://www.w3.org/1999/xlink" x="0px" y="0px"
	 width="100%" viewBox="0 0 256 256" enable-background="new 0 0 256 256" xml:space="preserve">
<path fill="#000000" opacity="1.000000" stroke="none" 
	d="
M76.528534,184.351074 
	C71.527969,183.906006 67.245354,184.773788 62.946438,186.460632 
	C53.999317,189.971405 48.639248,188.618713 42.608948,181.231949 
	C31.396173,167.496948 25.013279,151.972519 25.662275,133.918518 
	C26.215618,118.525436 35.462612,107.046623 49.700592,104.134048 
	C54.694416,103.112503 59.347584,104.206169 63.805016,106.119400 
	C69.330452,108.491035 74.486328,108.432564 80.074059,105.985184 
	C91.016884,101.192322 103.301964,103.398468 110.776077,110.764290 
	C113.360832,113.311592 114.129745,115.026543 110.684952,117.844986 
	C98.386452,127.907333 99.307091,146.740692 112.625839,155.477585 
	C116.578468,158.070419 116.636192,160.359665 114.911186,164.039902 
	C111.921951,170.417267 108.352989,176.396683 103.757820,181.731003 
	C98.141502,188.250717 92.237701,189.670090 84.065819,186.677277 
	C81.729889,185.821777 79.331108,185.137863 76.528534,184.351074 
z"/>
<path fill="#000000" opacity="1.000000" stroke="none" 
	d="
M241.576843,108.771133 
	C245.375565,108.525955 246.090393,110.048141 245.034500,113.030205 
	C236.650558,136.708252 228.311401,160.402145 219.928375,184.080505 
	C219.442734,185.452209 219.036789,187.169342 217.144012,187.201447 
	C212.486954,187.280426 207.824783,187.314606 203.170547,187.173141 
	C201.376801,187.118637 200.949936,185.409546 200.445114,183.985092 
	C192.164886,160.621155 183.926971,137.242020 175.552155,113.912018 
	C174.185623,110.105278 175.154526,108.669930 179.133667,108.749847 
	C193.495712,109.038284 190.325668,106.726753 194.414001,119.514091 
	C199.623993,135.809799 204.572647,152.189087 209.701981,168.752014 
	C211.322372,167.995422 211.413803,166.620056 211.779510,165.445892 
	C216.823257,149.251923 221.877731,133.061264 226.884521,116.855858 
	C229.727539,107.653885 228.637970,108.888512 237.638931,108.776962 
	C238.804413,108.762520 239.970169,108.771904 241.576843,108.771133 
z"/>
<path fill="#000000" opacity="1.000000" stroke="none" 
	d="
M131.607574,108.695419 
	C134.940155,108.758850 135.617096,107.069977 135.674957,104.516838 
	C135.775528,100.078880 135.164093,95.597824 136.170074,90.634445 
	C140.415955,90.634445 144.534988,90.659912 148.653534,90.625435 
	C151.365219,90.602737 152.003296,92.285500 152.022202,94.536888 
	C152.050171,97.866074 152.149155,101.196938 152.076874,104.524017 
	C152.014404,107.399521 153.087326,108.961121 156.158325,108.736053 
	C157.151489,108.663261 158.155106,108.733963 159.153931,108.737465 
	C166.996368,108.764961 167.061203,109.048561 166.999283,116.861427 
	C166.963730,121.345421 165.048813,122.451347 160.896042,122.369499 
	C151.721497,122.188675 152.071365,120.977669 152.068726,131.222488 
	C152.065857,142.376312 152.012894,153.530533 152.092026,164.683792 
	C152.143646,171.959854 154.815277,174.802597 162.134171,174.485672 
	C166.333252,174.303848 166.770126,175.978729 166.564880,179.440521 
	C166.054352,188.050446 166.034592,188.196136 157.441940,188.258942 
	C141.832092,188.373047 135.658905,182.226776 135.644806,166.550842 
	C135.633270,153.732269 135.496460,140.911728 135.691299,128.096252 
	C135.754593,123.933540 134.750290,121.809235 130.144455,122.209229 
	C128.024918,122.393295 124.897583,123.278282 124.190300,120.184967 
	C123.426224,116.843178 122.830940,113.065102 124.639877,109.961411 
	C125.963379,107.690605 128.937683,109.010864 131.607574,108.695419 
z"/>
<path fill="#000000" opacity="1.000000" stroke="none" 
	d="
M76.925842,102.333672 
	C70.893333,103.364769 70.051514,102.567757 70.732491,96.909882 
	C71.792824,88.100212 81.455330,78.246460 90.165527,76.950798 
	C93.668762,76.429680 94.265907,78.313599 93.829414,81.059189 
	C92.226219,91.143501 87.492157,98.830452 76.925842,102.333672 
z"/>
</svg>