<svg xmlns="http://www.w3.org/2000/svg" viewBox="0 0 71 43" class="landing-devices__icon--iphone"><path d="M49,7.51177153 C49,7.15382362 49,6.78309186 48.9865067,6.43792781 C48.9730135,6.09276376 48.9325337,5.74759971 48.8650675,5.40243566 C48.7841079,4.99335234 48.6491754,4.60983673 48.4467766,4.23910497 C48.0554723,3.5104253 47.4347826,2.90958417 46.6521739,2.53885242 C46.2608696,2.35987846 45.8425787,2.21925607 45.4242879,2.14255295 C44.7496252,2.04028212 44.0749625,1.9891467 43.4002999,2.00193056 L28.0314843,2.00193056 C27.6671664,2.00193056 27.2488756,2.00193056 26.9250375,2.00193056 C26.4797601,2.00193056 26.0344828,2.05306597 25.5892054,2.1297691 C25.1574213,2.20647222 24.7526237,2.33431076 24.3613193,2.52606856 C23.5922039,2.89680032 22.958021,3.49764145 22.5667166,4.22632111 C22.3778111,4.59705287 22.2293853,4.99335234 22.1484258,5.3896518 C22.0809595,5.73481586 22.0404798,6.07997991 22.0269865,6.42514396 C22.0134933,6.77030801 22.0134933,7.14103977 22,7.49898768 L22,51.4882285 C22,51.8461764 22,52.2169081 22.0269865,52.5620722 C22.0404798,52.9072362 22.0809595,53.2524003 22.1484258,53.5975643 C22.2293853,54.0066477 22.3643178,54.3901633 22.5667166,54.760895 C22.958021,55.4895747 23.5787106,56.0904158 24.3613193,56.4611476 C24.7526237,56.6401215 25.1709145,56.7807439 25.5892054,56.8574471 C26.2638681,56.9597179 26.9385307,57.0108533 27.6131934,56.9980694 C27.7616192,56.9980694 27.910045,56.9980694 28.0584708,56.9980694 L42.982009,56.9980694 C43.3463268,56.9980694 43.7646177,56.9980694 44.0884558,56.9980694 C44.5337331,56.9980694 44.9790105,56.946934 45.4242879,56.8702309 C45.856072,56.7935278 46.2608696,56.6656892 46.6521739,56.4739314 C47.4212894,56.1031997 48.0554723,55.5151424 48.4467766,54.7736789 C48.6356822,54.4029471 48.7841079,54.0066477 48.8650675,53.6103482 C48.9325337,53.2651841 48.9730135,52.9200201 48.9865067,52.574856 C49,52.229692 49,51.8589602 49,51.5010123 L49,7.98477412 C49,7.83136787 49,7.66517777 49,7.51177153 Z M33.2263868,2.6539071 C33.2263868,2.56442012 33.3073463,2.487717 33.4017991,2.487717 L37.5577211,2.487717 C37.6521739,2.487717 37.7331334,2.56442012 37.7331334,2.6539071 L37.7331334,2.67947481 C37.7331334,2.76896178 37.6521739,2.84566491 37.5577211,2.84566491 L33.4017991,2.84566491 C33.3073463,2.84566491 33.2263868,2.76896178 33.2263868,2.67947481 L33.2263868,2.6539071 L33.2263868,2.6539071 Z M32.2953523,4.07291487 C32.2953523,4.3669435 32.0524738,4.62262058 31.7421289,4.64818829 C31.4047976,4.67375599 31.107946,4.44364663 31.0809595,4.12405028 C31.053973,3.80445394 31.2968516,3.52320916 31.6341829,3.49764145 C31.6611694,3.49764145 31.7016492,3.49764145 31.7286357,3.49764145 C32.0389805,3.52320916 32.2818591,3.77888623 32.2818591,4.07291487 L32.2953523,4.07291487 Z M47.6641679,8.07426109 L47.6641679,51.4882285 C47.6641679,51.8206087 47.6641679,52.1785566 47.6506747,52.4981529 C47.6506747,52.7793977 47.6101949,53.0734263 47.5562219,53.3546711 C47.5022489,53.6486998 47.3943028,53.9171607 47.2593703,54.1856216 C47.0029985,54.6714081 46.5712144,55.0804914 46.0584708,55.3233846 C45.7751124,55.4512231 45.4917541,55.553494 45.1814093,55.6046294 C44.8170915,55.6685487 44.4392804,55.7069002 44.0614693,55.7069002 C43.7511244,55.7069002 43.3598201,55.7069002 42.9955022,55.7069002 L27.6401799,55.7069002 C27.0464768,55.7196841 26.4527736,55.6813325 25.8725637,55.5918455 C25.5622189,55.5407101 25.2788606,55.4512231 24.9955022,55.3106007 C24.4827586,55.0677075 24.0509745,54.6586242 23.7946027,54.1728378 C23.6596702,53.9043768 23.5517241,53.6359159 23.4977511,53.3418873 C23.4437781,53.0606425 23.4032984,52.7793977 23.4032984,52.4853691 C23.3898051,52.1657727 23.3898051,51.8078248 23.3898051,51.4754446 L23.3898051,7.51177153 C23.3898051,7.17939133 23.3898051,6.82144343 23.4032984,6.50184708 C23.4032984,6.2206023 23.4437781,5.92657366 23.4977511,5.64532888 C23.5517241,5.35130024 23.6596702,5.07005546 23.7946027,4.81437839 C24.0509745,4.32859194 24.4827586,3.91950862 24.9955022,3.6766154 C25.2788606,3.54877686 25.5622189,3.44650603 25.8725637,3.39537062 C26.2368816,3.33145135 26.6146927,3.29309979 26.9925037,3.29309979 C27.3028486,3.29309979 27.6941529,3.29309979 28.0584708,3.29309979 L29.88006,3.29309979 C30.1094453,3.29309979 30.2848576,3.45928989 30.2848576,3.6766154 L30.2848576,3.6766154 L30.2848576,4.1751857 C30.2848576,4.87829765 30.892054,5.45357107 31.6341829,5.45357107 L39.4602699,5.45357107 C40.2023988,5.45357107 40.7961019,4.89108151 40.8095952,4.18796955 L40.8095952,3.66383155 C40.8095952,3.44650603 40.9985007,3.28031593 41.2278861,3.28031593 L43.4137931,3.28031593 C44.0074963,3.26753208 44.6011994,3.30588364 45.1814093,3.39537062 C45.4917541,3.44650603 45.7751124,3.53599301 46.0584708,3.6766154 C46.5712144,3.91950862 47.0029985,4.32859194 47.2593703,4.81437839 C47.3943028,5.08283931 47.5022489,5.35130024 47.5562219,5.64532888 C47.6101949,5.92657366 47.6506747,6.20781845 47.6506747,6.50184708 C47.6641679,6.82144343 47.6641679,7.17939133 47.6641679,7.51177153 L47.6641679,8.07426109 Z" transform="rotate(-90 35.5 29.5)"></path></svg>